<svg width="435" height="42" viewBox="0 0 435 42" fill="none" xmlns="http://www.w3.org/2000/svg">
<g clip-path="url(#clip0_2_9)">
<path d="M211.283 0.910571C184.286 -1.15506 131.696 2.86189 81.8346 10.7974L70.0646 12.6731C36.9797 17.9545 19.1072 21.6365 6.44987 25.7797C1.50981 27.397 1.07807 27.6127 1.12581 28.4397C1.19846 29.6465 1.98513 29.5541 11.0838 27.2707C20.4989 24.9079 28.8825 23.3741 51.8144 19.8193C128.458 7.93849 164.06 4.46528 203.573 5.01599C211.316 5.12334 223.551 6.70189 223.468 7.58262C223.357 8.75858 215.296 11.867 196.744 17.8869C173.92 25.2926 159.974 30.3463 158.655 31.6883C156.399 33.9825 158.445 36.069 163.265 36.3941C166.019 36.58 166.651 36.5502 179.447 35.6187C216.188 32.9487 239.583 32.1515 271.155 32.4944C319.235 33.0173 349.74 34.7112 406.891 40.0333C427.426 41.9458 428.492 42.0015 432.376 41.3574L432.445 41.3464C433.691 41.1446 434.033 39.5323 432.859 39.0253C429.838 37.7231 427.781 37.4309 409.977 35.7837C350.293 30.2608 318.782 28.4676 272.923 27.9884C248.804 27.7359 238.034 27.8731 220.38 28.6584C208.312 29.1952 176.407 31.1376 171.918 31.6078C169.47 31.8652 180.359 28.0043 199.425 21.8561C223.543 14.0777 228.415 11.7676 228.799 7.93451C229.232 3.61239 225.137 1.97023 211.283 0.910571Z" fill="#F37020" fill-opacity="0.6"/>
</g>
<defs>
<clipPath id="clip0_2_9">
<rect width="433.812" height="41.75" fill="white" transform="translate(0.21875)"/>
</clipPath>
</defs>
</svg>
